<?xml version="1.0" encoding="utf-8"?>
<!-- Generator: Adobe Illustrator 18.0.0, SVG Export Plug-In . SVG Version: 6.00 Build 0)  -->
<!DOCTYPE svg PUBLIC "-//W3C//DTD SVG 1.1//EN" "http://www.w3.org/Graphics/SVG/1.1/DTD/svg11.dtd">
<svg version="1.1" id="Layer_1" xmlns="http://www.w3.org/2000/svg" xmlns:xlink="http://www.w3.org/1999/xlink" x="0px" y="0px"
	 viewBox="0 0 477.5 144.5" enable-background="new 0 0 477.5 144.5" xml:space="preserve">
<g id="_x35_X4K3n.tif_1_">
	<g id="_x35_X4K3n.tif">
		<g>
			<path fill-rule="evenodd" clip-rule="evenodd" fill="#272424" d="M475.1,55.7c-4.7,12.4-9.4,24.8-14.1,37.2
				c-1.1,2.8-2.1,5.6-3.2,8.4c-2.9,7-12.7,10.8-19.5,7.7c-0.9-0.4-0.8-0.9-0.9-1.5c0-0.8,0-1.6,0-2.4c0-5.1,0-5.1,5-5
				c5,0.1,7-2.9,5.2-7.7c-4.4-11.7-8.8-23.4-13.2-35.1c-0.3-0.7-0.5-1.4-0.9-2.6c3.8,0,7.3,0,10.9,0c2,0,1.9,1.7,2.3,2.8
				c2.7,8.1,5.2,16.2,8,25c2.7-8.3,5.5-15.8,7.5-23.5c1-3.6,2.6-4.6,6-4.3c2.3,0.2,4.7,0.5,7-0.3C475.1,54.8,475.1,55.2,475.1,55.7z
				"/>
			<path fill-rule="evenodd" clip-rule="evenodd" fill="#272424" d="M164.2,75.7c0.5-7.1,2.2-12.8,7-17.1c6-5.6,15.9-6.9,23.2-3
				c6.7,3.5,11.6,13.2,10.6,20.7c-0.3,2.1-1.6,1.5-2.7,1.5c-8,0-15.9,0.1-23.9,0c-2.5,0-2.8,0.7-2.3,2.9c1.8,8.5,12.4,9,16.2,4.5
				c2.3-2.7,4.6-2.5,7.2-2.5c1.5,0,2.9,0,4.4,0c-1.4,7-7.2,12.5-14.2,13.5c-5.5,0.8-10.9,0.4-15.9-2.5c-5-3-7.4-7.7-9.3-13.8
				c-1.1,2.1-0.7,3.7-1.3,5c-2.7,6.5-7.8,9.6-14.3,10.8c-8.8,1.6-17.5,1.3-25-4.4c-4.2-3.1-6.1-7.6-6.6-12.7c-0.2-1.7,0.5-2.1,2-2
				c1.5,0.1,2.9,0.1,4.4,0c3.1-0.1,6.2-0.7,6.4,4.1c0.1,2.2,2.2,3.7,4.1,4.6c4.6,2.1,9.3,2.2,14,0.4c2.3-0.9,3.9-2.5,4.1-5.3
				c0.1-2.7-1.3-4.4-3.5-5.7c-3.6-2-7.6-2.5-11.5-3.4c-3.2-0.8-6.2-1.8-9.2-3c-12.3-5.3-10.7-20.3-1.9-26.2
				c8.1-5.4,22.2-5.3,29.9,0.4c4,3,6.2,6.9,6.5,12c0.1,1.6-0.4,2-1.8,1.9c-1.7-0.1-3.4-0.1-5.1,0c-3,0.1-5.3,0.3-6.4-4
				c-1.5-5.6-13.6-6.5-17.1-1.8c-2.1,2.9-1.1,6.5,2.4,7.9c4.6,1.9,9.4,2.7,14.2,4C155.8,64.3,161.9,67.2,164.2,75.7z M184.7,70.5
				c2.2,0,4.5-0.1,6.7,0c2,0.1,2.2-0.7,1.7-2.3c-1.1-3.8-3.8-6-7.8-6.2c-4.2-0.2-7.4,2-9,5.7c-1,2.3-0.5,3,2,2.8
				C180.5,70.4,182.6,70.5,184.7,70.5z"/>
			<path fill-rule="evenodd" clip-rule="evenodd" fill="#272424" d="M399.2,60.3c0.6,0.2,1.1,0.1,1.5-0.4c4.5-5.8,11-6.5,17.6-6.5
				c3,0,6,0.2,8.9,1.3c5.5,1.9,8,5.2,8,11.1c0,7.4,0,14.8,0,22.2c0,2.3,0.3,4.6,0.5,6.9c-2.6,0.1-5.2-0.1-7.7,0.2
				c-2.5,0.3-3.5-0.8-3.5-3.5c-5,4.4-10.7,5.4-16.8,4.6c-6.4-0.8-10.4-4.9-10.8-10.9c-0.5-6.4,2.7-11,9.2-12.6
				c4.2-1,8.6-1.4,12.9-2.1c2.8-0.4,5.1-1.4,4.8-4.8c-0.2-2.9-2.1-4.4-5.6-4.7c-4.8-0.3-5.9,0.9-8.7,5c-1.9,2.8-5.7,0.6-8.7,1.1
				c-1.2,0.2-2.8,0.5-2.8-2.1c-4.3,8.2-11.4,10.3-19.6,10.1c-3-0.1-6.1,0.1-9.1-0.1c-1.8-0.1-2.2,0.6-2.2,2.3
				c0.1,5.1,0,10.1,0.1,15.2c0,1.8-0.4,2.6-2.4,2.5c-2.5-0.2-5-0.2-7.4,0c-2.2,0.2-2.5-0.8-2.5-2.7c0.1-16.7,0.1-33.5,0-50.2
				c0-2.5,0.9-2.9,3.1-2.8c7.4,0.1,14.8,0,22.2,0.1C393.5,39.4,400.7,47.3,399.2,60.3z M367.5,57c-0.1,0-0.1,0-0.2,0
				c0,2.2,0,4.5,0,6.7c0,1.2,0.3,1.9,1.7,1.8c3.8-0.2,7.6,0.3,11.4-0.3c4.7-0.7,7-3.1,7.1-7.4c0.2-4.7-1.8-7.3-6.4-8.5
				c-1.9-0.5-3.8-0.4-5.7-0.3c-2.7,0.1-6.2-1.2-7.7,0.6C366.5,51,367.5,54.4,367.5,57z M423.9,75.9c-2.2,0.7-4.2,1.2-6.2,1.4
				c-2.4,0.3-4.9,0.6-7,1.9c-1.8,1.1-2.5,2.7-2.4,4.8c0.1,2,1.2,3.3,2.9,4.1c6,2.6,12.2-1,12.6-7.6C424,79.2,423.9,77.7,423.9,75.9z
				"/>
			<path fill-rule="evenodd" clip-rule="evenodd" fill="#272424" d="M314,64.5c1,0.3,1-0.7,1.2-1.1c4.9-7.9,13.5-11.6,22.5-9.6
				c7.8,1.7,13.6,8.7,14.7,17.6c0.8,6.4,0.8,6.4-5.7,6.4c-6.9,0-13.7,0.1-20.6-0.1c-2.5-0.1-2.8,0.7-2.2,2.9
				c0.8,3.3,2.5,5.7,5.9,6.7c4,1.1,7.9,0.7,10.6-2.3c1.8-2.1,3.6-2.5,6-2.4c1.8,0.1,3.5,0,5.6,0c-2,6.2-5.5,10.9-11.4,12.6
				c-15.8,4.7-29.2-4.4-28.3-21.9C312.6,70.3,313.9,67.5,314,64.5L314,64.5z M341.4,70.5c-1-5.7-3.6-8.3-8.3-8.5
				c-4.4-0.1-8,2.5-9.1,6.4c-0.5,1.7-0.2,2.1,1.6,2.1C330.8,70.4,336.1,70.5,341.4,70.5z"/>
			<path fill-rule="evenodd" clip-rule="evenodd" fill="#272424" d="M274,90.6c-5.2,5.8-11.3,6.8-18,5.3c-5-1.2-7.9-4.7-8.6-9.6
				c-1.5-9.9-0.3-19.9-0.7-29.9c0-1.2,0.5-1.6,1.6-1.6c0.1,0,0.2,0,0.3,0c9.4-0.9,9.4-0.9,9.4,8.5c0,5.2,0,10.3,0,15.5
				c0.1,5.9,2.3,8.7,7,8.8c5.2,0.1,8.3-2.8,8.4-8.7c0.2-7.1,0.1-14.1,0-21.2c0-2,0.3-3.1,2.7-2.8c2.8,0.3,6.7-1.2,8.3,0.6
				c1.4,1.6,0.5,5.3,0.5,8.1c0,9.5-0.1,19.1,0.1,28.6c0.1,2.7-0.8,3.3-3.2,3c-1.2-0.2-2.5-0.1-3.7,0C275.4,95.2,272.6,95.4,274,90.6
				z"/>
			<path fill-rule="evenodd" clip-rule="evenodd" fill="#272424" d="M239.8,69c-2.7,0.6-4.6-0.2-6.3-3.7c-2.3-4.7-10.1-4.4-13.4,0.1
				c-3.3,4.5-3.5,13.9-0.4,18.6c1.8,2.6,4.3,4,7.4,3.8c3.4-0.2,6.3-1.7,7.2-5.1c0.8-2.9,2.2-3.5,4.7-3.1c0.4,0.1,0.9,0,1.3,0
				c6.5,0,6.8,0.5,4,6.6c-3.4,7.3-10.8,11-20.2,10.1c-8.4-0.8-15-6.2-17.3-14.2c-2.6-9.4,0.4-19.8,7.3-25c6.9-5.1,18.7-5.1,25.6,0.2
				c1.8,1.4,3.3,3,4.3,5.1C247.2,68.3,246.8,69,239.8,69z"/>
			<path fill-rule="evenodd" clip-rule="evenodd" fill="#272424" d="M314.1,64.4c-10.2-1.5-14.8,2.3-15,12.6
				c-0.1,5.2-0.1,10.3,0,15.5c0.1,2.1-0.6,2.6-2.6,2.6c-8.8,0.1-8.8,0.2-8.8-8.5c0-9.4,0.2-18.8-0.1-28.2c-0.1-3.2,1-3.8,3.9-3.7
				c6.4,0.2,6.4,0.1,7.2,6.4c2.8-4.1,6.2-6.9,11.1-7.5c2.9-0.4,4.5,0.2,4.2,3.6C313.8,59.5,314,62,314.1,64.4L314.1,64.4z"/>
			<path fill-rule="evenodd" clip-rule="evenodd" fill="#0E7A99" d="M14.9,30.1c0.2-0.2,0.3-0.4,0.5-0.7c0.2-0.3,0.4-0.5,0.6-0.8
				C21,21.6,27.2,16,34.8,11.8c1.2,0.9,1.5,1.9,1,3.4c-0.6,2.1-0.7,4.3-0.1,6.4c-3.7,2.7-6.8,6.1-10.1,9.2
				C22,30.6,18.5,30.4,14.9,30.1z"/>
			<path fill-rule="evenodd" clip-rule="evenodd" fill="#0E7A99" d="M86.3,114.5c-1.6,4.3-5.2,6.8-8.3,9.9c-3.1,3-6.6,5.7-10.6,7.6
				c0-3.5-0.1-6.9-0.1-10.4c3.8-3.1,7.3-6.5,10.6-10c1.1,0.6,2.3,0.5,3.4,0.9C83,113.1,85.4,112,86.3,114.5z"/>
			<path fill-rule="evenodd" clip-rule="evenodd" fill="#0E7A99" d="M62.6,108.6c0.9-0.8,1.7-1.6,2.6-2.4c1.3,1.5,3.1,0.6,4.7,0.9
				c1.9,0.3,4-0.8,5.6,0.8c-3.4,4.5-7.2,8.5-12.1,11.4c-1.3-1-0.7-2.5-0.8-3.8C62.5,113.1,63.5,110.9,62.6,108.6z"/>
			<path fill-rule="evenodd" clip-rule="evenodd" fill="#C2DEE5" d="M82.9,58.4c1.6,2.5,2,5.3,2.6,8.1c-3.1,0-6.3,0-9.4,0
				c-0.9-2.7-1.8-5.4-2.7-8.1C76.5,56.5,79.7,59.1,82.9,58.4z"/>
			<path fill-rule="evenodd" clip-rule="evenodd" fill="#83BCCB" d="M65.3,15.5c3-0.4,5.9-0.4,8.8,0.5c-0.2,2.9-0.4,5.9-0.7,8.8
				c-2.9,0-5.9-0.1-8.8-0.1C64.2,21.6,65.3,18.6,65.3,15.5z"/>
			<path fill-rule="evenodd" clip-rule="evenodd" fill="#C2DEE5" d="M99,69.3c0,3.1,0,6.3,0.1,9.4c-2.9-0.3-5.8-1-8.7-0.6
				c0-2.7,0-5.4-0.1-8.1C93.1,68.4,96.1,69.6,99,69.3z"/>
			<path fill-rule="evenodd" clip-rule="evenodd" fill="#69AEC0" d="M35,119.2c2.9-0.3,5.8-0.7,8.6-1c0,3,0.1,6,0.1,9
				c-2.6,1.1-5.4,0.6-8.1,0.7C34.7,125.1,35,122.1,35,119.2z"/>
			<path fill-rule="evenodd" clip-rule="evenodd" fill="#C2DEE5" d="M30.3,140.7c-2.7,0.4-5.4-0.5-8.1-0.7c0.2-2.9-0.6-5.9,0.6-8.8
				c2.8-0.3,5.4,0.5,8.1,0.8C30.7,134.9,30.5,137.8,30.3,140.7z"/>
			<path fill-rule="evenodd" clip-rule="evenodd" fill="#69AEC0" d="M16.7,44.9c-0.9,2.5-1.8,4.9-2.7,7.4c-2.9,0.3-5.8-0.4-8.7-0.6
				c0.2-2.9,1.2-5.6,2.4-8.2C10.6,45.1,13.9,43.6,16.7,44.9z"/>
			<path fill-rule="evenodd" clip-rule="evenodd" fill="#C2DEE5" d="M12,67.2c0.3,2.9,1,5.8,0.7,8.7c-2.9-0.3-5.8-1-8.7-0.7
				c-1-2.6-0.7-5.4-0.7-8.1C6.2,67.2,9.1,67.2,12,67.2z"/>
			<path fill-rule="evenodd" clip-rule="evenodd" fill="#83BCCB" d="M25.5,61.8c-0.1,2.5-0.1,4.9-0.2,7.4c-3,0-6.1,0-9.1,0
				c0.1-2.7-0.6-5.4,0.4-8.1C19.6,60.8,22.5,61.8,25.5,61.8z"/>
			<path fill-rule="evenodd" clip-rule="evenodd" fill="#69AEC0" d="M86.1,82.1c0,0.4-0.1,0.9-0.1,1.3c-0.1,0.3-0.2,0.5-0.3,0.8
				c-0.1,2.1-0.6,4.1-1.3,6.1c-0.7-1.5-1.9-1.6-3.3-1.5c-1.9,0.1-3.7,0-5.5-0.6c0.5-2.5,0.9-4.9,1.4-7.4
				C80.1,80.4,83,81.7,86.1,82.1z"/>
			<path fill-rule="evenodd" clip-rule="evenodd" fill="#69AEC0" d="M25.5,61.8c-3,0-5.9-1-8.9-0.7c0.1-2.5,0.2-5.1,1.4-7.4
				c3.1,0,6.3,0,9.4,0C26.6,56.3,25.6,59,25.5,61.8z"/>
			<path fill-rule="evenodd" clip-rule="evenodd" fill="#0E7A99" d="M39.1,35.6c-0.4,0.4-0.8,0.8-1.1,1.2c-0.8-1.8-2.4-1.2-3.8-1.2
				c-2.1,0-4.2,0.2-6-1.4c2.7-3.4,5.7-6.5,9.4-8.8c1.6,0.2,1.8,1.5,1.4,2.5C37.9,30.5,39,33,39.1,35.6z"/>
			<path fill-rule="evenodd" clip-rule="evenodd" fill="#C2DEE5" d="M79.5,12.6c-2.5-0.3-5-0.5-7.4-1.3c0.2-2.9,1-5.8,0.6-8.7
				c2.6-0.2,5,0.8,7.4,1.2C80,6.8,80.5,9.7,79.5,12.6z"/>
			<path fill-rule="evenodd" clip-rule="evenodd" fill="#83BCCB" d="M47.2,139.6c-2.4,0.6-4.9,1.2-7.5,1c0-2.9,0-5.8,0-8.7
				c2.5-0.4,4.9-0.9,7.4-1.3C47.1,133.6,47.2,136.6,47.2,139.6z"/>
			<path fill-rule="evenodd" clip-rule="evenodd" fill="#2083A0" d="M75.5,107.8c-1.7-1.6-3.8-0.5-5.6-0.8c-1.6-0.3-3.3,0.7-4.7-0.9
				c1.4-1.7,2.9-3.5,4.3-5.2c3.4,0.2,6.7,0.5,10.1,0.7c-0.1,0.2-0.2,0.4-0.3,0.6c-0.2,0.2-0.3,0.5-0.5,0.7
				C78.1,104.8,77,106.5,75.5,107.8z"/>
			<path fill-rule="evenodd" clip-rule="evenodd" fill="#2E8DA8" d="M49.8,28.6c-1.6,0.8-3.3,1.7-4.9,2.5c-1.5-0.8-1-2.2-1.2-3.5
				c-0.3-1.9,0.8-3.9-0.8-5.6c1.6-1.4,3.5-2.1,5.5-2.6c1.2,0.6,1.4,1.6,1.3,2.8C49.8,24.3,49.8,26.4,49.8,28.6z"/>
			<path fill-rule="evenodd" clip-rule="evenodd" fill="#DAEBEF" d="M93.6,32.2c-2.2-0.2-4-1-5.4-2.7c-0.4-3.2,0.9-6.3,0.7-9.5
				c2.2,0.2,3.5,2,5.4,2.7C94.5,25.9,94.1,29,93.6,32.2z"/>
			<path fill-rule="evenodd" clip-rule="evenodd" fill="#DAEBEF" d="M14.1,123.8c-2.4-0.4-4.2-2.1-6.1-3.4c0.7-1.1,0.7-2.3,0.7-3.6
				c0.1-2-0.4-4,0.7-5.9c1.9,1,3.8,1.8,5.4,3.3C13.4,117.4,14.4,120.7,14.1,123.8z"/>
			<path fill-rule="evenodd" clip-rule="evenodd" fill="#C2DEE5" d="M88.9,20c0.2,3.2-1.1,6.3-0.7,9.5c-2.1-0.8-4.3-1.3-6.1-2.7
				c1.7-2.8-0.1-6,1.4-8.8C85.6,17.9,87.1,19.3,88.9,20z"/>
			<path fill-rule="evenodd" clip-rule="evenodd" fill="#EAF3F6" d="M30.3,88.8c1.4,0.1,1.7,1.4,2.3,2.2c1.3,1.8,1.1,3-1.5,3.2
				c-6.9,0.5-7.4,0.3-10.3-5.4C24,88.8,27.1,88.8,30.3,88.8z"/>
			<path fill-rule="evenodd" clip-rule="evenodd" fill="#2083A0" d="M43,22c1.5,1.7,0.5,3.7,0.8,5.6c0.2,1.2-0.3,2.7,1.2,3.5
				c-0.1,0.3-0.2,0.4-0.5,0.4c-0.2,0.2-0.4,0.4-0.7,0.5c-1.6,1.2-3.1,2.4-4.7,3.6C39,33,37.9,30.5,39,27.8c0.4-1,0.2-2.3-1.4-2.5
				C39.1,23.9,40.9,22.7,43,22z"/>
			<path fill-rule="evenodd" clip-rule="evenodd" fill="#C2DEE5" d="M14.1,123.8c0.3-3.2-0.7-6.4,0.7-9.5c1.8,0.7,3.6,1.4,5.4,2.1
				c0,3-0.3,6-1.5,8.8C17,125.4,15.5,124.6,14.1,123.8z"/>
			<path fill-rule="evenodd" clip-rule="evenodd" fill="#3C96AE" d="M49.8,28.6c0-2.1,0-4.3,0-6.4c0-1.2-0.1-2.3-1.3-2.8
				c2-1.4,4.4-1.6,6.7-2.2c0,3.1,0,6.2,0,9.3C53.4,27.2,51.6,27.9,49.8,28.6z"/>
			<path fill-rule="evenodd" clip-rule="evenodd" fill="#DAEBEF" d="M30.3,88.8c-3.2,0-6.3,0-9.5,0c-0.9-1.7-1.7-3.5-2-5.4
				c3.2,0,6.3,0,9.5,0C29.7,84.9,30.1,86.8,30.3,88.8z"/>
			<path fill-rule="evenodd" clip-rule="evenodd" fill="#52A1B7" d="M27.5,53.7c-3.1,0-6.3,0-9.4,0c0.3-2.2,1-4.2,2.1-6.1
				c2.9,1.7,6.3-0.1,9.3,1.4C28.8,50.6,28.1,52.1,27.5,53.7z"/>
			<path fill-rule="evenodd" clip-rule="evenodd" fill="#2E8DA8" d="M22.7,42.1c0.5-1.7,1.6-3.2,2.8-4.5c0.3,1.8,1.8,1.1,2.9,1.3
				c2.2,0.4,4.6-1,6.6,0.9c-1.1,1.5-2.2,3-3.3,4.6c-1.9-0.6-3.8-0.9-5.8-0.8C24.7,43.7,23.4,43.6,22.7,42.1z"/>
			<path fill-rule="evenodd" clip-rule="evenodd" fill="#2083A0" d="M86.3,114.5c-0.8-2.5-3.3-1.5-5-2.1c-1.1-0.4-2.3-0.3-3.4-0.9
				c1-1.3,1.9-2.6,2.9-3.9c3.2,0,6.5-0.3,9.5,1.4C89,110.9,88.6,113.5,86.3,114.5z"/>
			<path fill-rule="evenodd" clip-rule="evenodd" fill="#C2DEE5" d="M28.3,83.4c-3.2,0-6.3,0-9.5,0c-0.7-1.7-1.5-3.4-1.4-5.3
				c3.1,0,6.3-0.1,9.4-0.1C27.3,79.8,27.8,81.6,28.3,83.4z"/>
			<path fill-rule="evenodd" clip-rule="evenodd" fill="#DAEBEF" d="M82.9,58.4c-3.1,0.7-6.3-1.9-9.5,0c-1.4-1.3-1.8-3.2-2.7-4.7
				c3.3-1.5,6.7-0.3,10.1-0.7C81.5,54.8,82.9,56.3,82.9,58.4z"/>
			<path fill-rule="evenodd" clip-rule="evenodd" fill="#9BC8D5" d="M29.6,127.8c-1.9,0.4-3.6-0.5-5.4-0.7c0-3.1,0-6.2,0-9.3
				c2,0.4,4.1,0.7,6.1,1.1C28.9,121.8,29.8,124.8,29.6,127.8z"/>
			<path fill-rule="evenodd" clip-rule="evenodd" fill="#ABD1DC" d="M72.7,2.6c0.4,2.9-0.4,5.8-0.6,8.7c-1.8,0-3.6,0-5.4,0
				c0-2.9,0-5.8,0-8.7C68.7,2.6,70.7,2.6,72.7,2.6z"/>
			<path fill-rule="evenodd" clip-rule="evenodd" fill="#83BCCB" d="M60.6,11.9c-1.7,0.6-3.5,0.9-5.3,0.9c-0.6-3,0.9-5.9,0.6-8.9
				c1.7-1,3.6-0.6,5.4-0.8C61.2,6,61.7,9,60.6,11.9z"/>
			<path fill-rule="evenodd" clip-rule="evenodd" fill="#52A1B7" d="M43.7,127.2c0-3-0.1-6-0.1-9c1.8-0.6,3.7-1.1,5.5-1.7
				c0,3.1,0,6.3,0,9.4C47.5,126.8,45.6,127.2,43.7,127.2z"/>
			<path fill-rule="evenodd" clip-rule="evenodd" fill="#69AEC0" d="M97,92.8C96.7,95,96.1,97.1,95,99c-2.9-1.7-6.1-0.3-9.1-0.9
				c0.7-1.8,1.4-3.6,2-5.4C91,92.4,94,94.1,97,92.8z"/>
			<path fill-rule="evenodd" clip-rule="evenodd" fill="#9BC8D5" d="M60.6,11.9C61.7,9,61.2,6,61.3,3.1C63,2,64.8,2.7,66.6,2.6
				c0,2.9,0,5.8,0,8.7C64.6,11.5,62.7,12.3,60.6,11.9z"/>
			<path fill-rule="evenodd" clip-rule="evenodd" fill="#52A1B7" d="M86,98.1c3,0.6,6.2-0.8,9.1,0.9c-1.2,1.3-0.4,3.5-1.9,4.7
				c-3.2-0.2-6.4-0.5-9.5-0.7C84.4,101.3,85.2,99.7,86,98.1z"/>
			<path fill-rule="evenodd" clip-rule="evenodd" fill="#3C96AE" d="M22.7,42.1c0.6,1.5,1.9,1.6,3.3,1.5c2-0.1,3.9,0.2,5.8,0.8
				c-0.8,1.5-1.6,3.1-2.4,4.6c-2.9-1.5-6.4,0.4-9.3-1.4C20.5,45.5,21.6,43.8,22.7,42.1z"/>
			<path fill-rule="evenodd" clip-rule="evenodd" fill="#ABD1DC" d="M76.1,66.5c3.1,0,6.3,0,9.4,0c0.2,1.8,0.5,3.6,0.7,5.4
				c-3.1,0.4-6.2-0.8-9.3,0C76.6,70.1,76.4,68.3,76.1,66.5z"/>
			<path fill-rule="evenodd" clip-rule="evenodd" fill="#DAEBEF" d="M79.5,12.6c1.1-2.8,0.6-5.8,0.7-8.7c2-0.2,3.7,0.6,5.4,1.3
				c0.3,3-0.4,5.8-0.7,8.8C83.1,13.5,81.3,13,79.5,12.6z"/>
			<path fill-rule="evenodd" clip-rule="evenodd" fill="#2083A0" d="M62.6,108.6c0.9,2.3-0.1,4.6,0,6.9c0.1,1.3-0.5,2.7,0.8,3.8
				c-1.2,1.2-2.6,2-4.2,2.6c-0.8-0.8-1.7-1.5-1.2-2.8c1-2.4,0.3-4.8,0.5-7.2C59.9,110.7,61.3,109.6,62.6,108.6z"/>
			<path fill-rule="evenodd" clip-rule="evenodd" fill="#2E8DA8" d="M58.6,111.7c-0.2,2.4,0.4,4.9-0.5,7.2c-0.5,1.3,0.4,2,1.2,2.8
				c-1.3,1.3-3,1.5-4.6,2.2c-1.7-3-0.4-6.3-0.8-9.4C55.4,113.6,57,112.6,58.6,111.7z"/>
			<path fill-rule="evenodd" clip-rule="evenodd" fill="#DAEBEF" d="M99,69.3c-2.9,0.3-5.9-0.8-8.7,0.6c-1.3-1.9-0.4-4.1-0.7-6.1
				c2.7,0,5.4,0,8.1,0C98.1,65.6,98.5,67.5,99,69.3z"/>
			<path fill-rule="evenodd" clip-rule="evenodd" fill="#3C96AE" d="M83.6,102.9c3.2,0.2,6.4,0.5,9.5,0.7c-0.6,2-1.4,3.8-2.8,5.4
				c-3-1.7-6.3-1.4-9.5-1.4C81.7,106.1,82.7,104.5,83.6,102.9z"/>
			<path fill-rule="evenodd" clip-rule="evenodd" fill="#83BCCB" d="M97,92.8c-3,1.3-6-0.4-9-0.1c0.5-1.8,0.9-3.6,1.4-5.4
				c2.6,1.3,5.9-0.9,8.4,1.6C97.6,90.2,98.1,91.7,97,92.8z"/>
			<path fill-rule="evenodd" clip-rule="evenodd" fill="#3C96AE" d="M54.5,128.5c1.6-0.7,3.1-1.4,4.7-2.1c0.2,2.3,1.3,4.5,0.2,6.9
				c-0.4,0.9,0.4,1.6,1.3,2c-1.6,1.2-3.5,1.8-5.5,2C53.8,134.5,55.5,131.4,54.5,128.5z"/>
			<path fill-rule="evenodd" clip-rule="evenodd" fill="#3C96AE" d="M53.9,114.5c0.4,3.1-0.9,6.4,0.8,9.4c-1.6,1.3-3.6,1.5-5.5,2
				c0-3.1,0-6.3,0-9.4C50.7,115.8,52.3,115.2,53.9,114.5z"/>
			<path fill-rule="evenodd" clip-rule="evenodd" fill="#83BCCB" d="M29.6,127.8c0.2-3-0.7-6,0.7-8.9c1.6,0.1,3.1,0.2,4.7,0.3
				c0,2.9-0.3,5.9,0.6,8.7C33.6,127.9,31.6,127.8,29.6,127.8z"/>
			<path fill-rule="evenodd" clip-rule="evenodd" fill="#9BC8D5" d="M3.4,62.5c0.2-1.8,0.5-3.6,0.7-5.4c2.9-0.4,5.8,1.1,8.7,0.1
				c-0.3,1.8,0.4,3.7-0.7,5.4C9.2,62.5,6.3,62.5,3.4,62.5z"/>
			<path fill-rule="evenodd" clip-rule="evenodd" fill="#83BCCB" d="M12.8,57.1c-2.9,1-5.8-0.5-8.7-0.1c-0.3-2,0.5-3.7,1.2-5.4
				c2.9,0.2,5.8,1,8.7,0.6C14.1,54.1,13.4,55.6,12.8,57.1z"/>
			<path fill-rule="evenodd" clip-rule="evenodd" fill="#83BCCB" d="M86.1,82.1c-3-0.4-5.9-1.7-9.1-1.3c-0.5-1.6,0.5-3.2,0.4-4.8
				c3-0.1,5.9-0.1,8.8,0.7C86.1,78.5,86.1,80.3,86.1,82.1z"/>
			<path fill-rule="evenodd" clip-rule="evenodd" fill="#69AEC0" d="M55.9,3.9c0.3,3-1.2,5.9-0.6,8.9c-1.5,0.6-3,1.5-4.8,1.2
				c0-2.9,0-5.8,0-8.8C52.2,4.2,54,4,55.9,3.9z"/>
			<path fill-rule="evenodd" clip-rule="evenodd" fill="#EAF3F6" d="M9.4,111c-1.1,1.9-0.6,3.9-0.7,5.9c0,1.2,0,2.5-0.7,3.6
				c-2.9-0.9-4-2.9-3.6-5.8c0.1-0.8,0.1-1.6,0.2-2.3c0.2-1.3-0.7-3.1,0.7-3.6C7.1,108.1,8.4,109.5,9.4,111z"/>
			<path fill-rule="evenodd" clip-rule="evenodd" fill="#2E8DA8" d="M79.6,101.6c-3.4-0.2-6.7-0.5-10.1-0.7c0.9-1.3,1.7-2.7,2.6-4
				c3.2-0.1,6.4-0.1,9.6,0.7c-0.2,0.4-0.3,0.9-0.5,1.3c-0.1,0.2-0.3,0.4-0.4,0.5C80.6,100.3,80.3,101.1,79.6,101.6z"/>
			<path fill-rule="evenodd" clip-rule="evenodd" fill="#69AEC0" d="M65.3,15.5c0,3.1-1,6-0.7,9.1c-1.6,0.2-3.1,0.4-4.7,0.6
				c0-3.1,0-6.1,0-9.2C61.7,15.9,63.5,15.7,65.3,15.5z"/>
			<path fill-rule="evenodd" clip-rule="evenodd" fill="#EAF3F6" d="M93.6,32.2c0.5-3.1,0.9-6.3,0.7-9.5c4.1,2.8,5.2,6.5,3.5,11.3
				c-0.5,1.5-1.2,1.8-2.4,0.9C94.6,34.2,93.6,33.5,93.6,32.2z"/>
			<path fill-rule="evenodd" clip-rule="evenodd" fill="#9BC8D5" d="M73.4,24.8c0.2-2.9,0.4-5.9,0.7-8.8c1.7-0.4,3.1,0.8,4.7,0.7
				c-0.6,2.9,0.9,6.1-1.4,8.8C76,25.4,74.6,25.6,73.4,24.8z"/>
			<path fill-rule="evenodd" clip-rule="evenodd" fill="#52A1B7" d="M59.9,16.1c0,3.1,0,6.1,0,9.2c-1.6,0.4-3.2,0.8-4.7,1.2
				c0-3.1,0-6.2,0-9.3C56.6,16.3,58.3,16.5,59.9,16.1z"/>
			<path fill-rule="evenodd" clip-rule="evenodd" fill="#9BC8D5" d="M97.8,88.9c-2.4-2.4-5.7-0.3-8.4-1.6c0.3-1.6,0.5-3.1,0.8-4.7
				c2.9-0.2,5.8,0.3,8.7,0.7C98.8,85.3,98.6,87.1,97.8,88.9z"/>
			<path fill-rule="evenodd" clip-rule="evenodd" fill="#2E8DA8" d="M60.7,135.3c-0.9-0.4-1.7-1.1-1.3-2c1.1-2.4,0-4.6-0.2-6.9
				c1.6-0.9,3.1-1.8,4.7-2.7c0.6,3.2-1,6.6,0.9,9.7C63.8,134.7,61.9,134.4,60.7,135.3z"/>
			<path fill-rule="evenodd" clip-rule="evenodd" fill="#DAEBEF" d="M22.8,131.2c-1.3,2.8-0.4,5.8-0.6,8.8c-1.6-0.4-3.2-0.9-4.7-1.3
				c0.1-2.9-0.3-5.9,0.7-8.8C19.8,130,21.4,130.3,22.8,131.2z"/>
			<path fill-rule="evenodd" clip-rule="evenodd" fill="#ABD1DC" d="M77.4,25.5c2.3-2.6,0.8-5.9,1.4-8.8c1.7,0,3.3,0.4,4.7,1.3
				c-1.5,2.8,0.3,6.1-1.4,8.8C80.4,26.7,78.8,26.5,77.4,25.5z"/>
			<path fill-rule="evenodd" clip-rule="evenodd" fill="#ABD1DC" d="M24.2,117.8c0,3.1,0,6.2,0,9.3c-1.9-0.5-4-0.4-5.5-1.9
				c1.2-2.8,1.4-5.8,1.5-8.8C21.5,116.9,22.9,117.4,24.2,117.8z"/>
			<path fill-rule="evenodd" clip-rule="evenodd" fill="#EAF3F6" d="M80.8,53.1c-3.4,0.4-6.8-0.8-10.1,0.7c-0.5-0.7-1-1.4-1.4-2.2
				c-0.9-1.5-0.7-2.6,1.4-2.5C74.5,49.1,79,47.9,80.8,53.1z"/>
			<path fill-rule="evenodd" clip-rule="evenodd" fill="#2E8DA8" d="M11.3,36c0.4-1.3,1-2.5,2-3.4c0.9,1.2,2.2,0.8,3.4,0.8
				c2.1,0,4.2,0,6.2,0.7c-0.9,1.3-1.8,2.7-2.7,4c-2.2-0.3-4.2-1.6-6.5-0.8C12.6,37.8,11.8,37.1,11.3,36z"/>
			<path fill-rule="evenodd" clip-rule="evenodd" fill="#9BC8D5" d="M16.2,69.2c3,0,6.1,0,9.1,0c0.1,1.6,0.2,3.2,0.3,4.8
				c-3,0.5-5.9-0.9-8.9-0.6C15.7,72,16.2,70.6,16.2,69.2z"/>
			<path fill-rule="evenodd" clip-rule="evenodd" fill="#9BC8D5" d="M39.7,132c0,2.9,0,5.8,0,8.7c-1.6,0-3.2,0.1-4.7,0.1
				c0-2.9,0-5.8,0-8.7C36.6,132,38.1,132,39.7,132z"/>
			<path fill-rule="evenodd" clip-rule="evenodd" fill="#2083A0" d="M35.1,39.8c-2-1.9-4.4-0.5-6.6-0.9c-1.1-0.2-2.6,0.5-2.9-1.3
				c0.6-1.3,1.4-2.5,2.6-3.4c1.7,1.6,3.9,1.4,6,1.4c1.4,0,3-0.6,3.8,1.2C37,37.8,36,38.8,35.1,39.8z"/>
			<path fill-rule="evenodd" clip-rule="evenodd" fill="#ABD1DC" d="M3.4,62.5c2.9,0,5.8,0,8.7,0c0,1.6,0,3.1-0.1,4.7
				c-2.9,0-5.8,0-8.7,0C3.3,65.6,3.4,64,3.4,62.5z"/>
			<path fill-rule="evenodd" clip-rule="evenodd" fill="#ABD1DC" d="M16.7,73.3c3-0.3,5.9,1.1,8.9,0.6c0.9,1.2,0.8,2.7,1.2,4
				c-3.1,0-6.3,0.1-9.4,0.1C16.2,76.6,17,74.9,16.7,73.3z"/>
			<path fill-rule="evenodd" clip-rule="evenodd" fill="#ABD1DC" d="M98.9,83.4c-2.9-0.4-5.8-1-8.7-0.7c0-1.6,0.1-3.1,0.1-4.7
				c3-0.4,5.8,0.4,8.7,0.6C99,80.2,99,81.8,98.9,83.4z"/>
			<path fill-rule="evenodd" clip-rule="evenodd" fill="#52A1B7" d="M75.6,88.1c1.8,0.6,3.6,0.8,5.5,0.6c1.4-0.1,2.6,0.1,3.3,1.5
				c-0.1,1.5-0.5,2.9-1.3,4.1c-2.6-2.8-6-1-9-1.6C74.5,91.2,75,89.7,75.6,88.1z"/>
			<path fill-rule="evenodd" clip-rule="evenodd" fill="#3C96AE" d="M74,92.8c3,0.6,6.4-1.2,9,1.6c-0.2,1.2-0.5,2.3-1.3,3.2
				c-3.1-0.8-6.4-0.8-9.6-0.7C72.7,95.5,73.3,94.1,74,92.8z"/>
			<path fill-rule="evenodd" clip-rule="evenodd" fill="#9BC8D5" d="M86.2,76.6c-2.9-0.8-5.9-0.7-8.8-0.7c-0.9-1.2-0.4-2.7-0.5-4
				c3.1-0.8,6.2,0.4,9.3,0C86.2,73.5,86.2,75.1,86.2,76.6z"/>
			<path fill-rule="evenodd" clip-rule="evenodd" fill="#ABD1DC" d="M35,132c0,2.9,0,5.8,0,8.7c-1.6,0.8-3.1-0.4-4.7,0
				c0.2-2.9,0.5-5.8,0.7-8.7C32.3,132,33.6,132,35,132z"/>
			<path fill-rule="evenodd" clip-rule="evenodd" fill="#2E8DA8" d="M43.1,17.2c-1.1,0.6-2.3,1.3-3.4,1.9c-1.3-3,0.2-6.3-1.4-9.3
				c1.4-1.1,3-1.8,4.7-2.2C43.2,10.9,42.1,14,43.1,17.2z"/>
			<path fill-rule="evenodd" clip-rule="evenodd" fill="#52A1B7" d="M16.7,44.9c-2.9-1.3-6.2,0.1-9-1.4c0.3-1.2,0.6-2.4,1.4-3.3
				c3.2,0.2,6.4,0.5,9.5,0.7C18,42.3,17.4,43.6,16.7,44.9z"/>
			<path fill-rule="evenodd" clip-rule="evenodd" fill="#52A1B7" d="M50.5,5.1c0,2.9,0,5.8,0,8.8c-1.2,0.8-2.5,1.5-3.9,1.7
				c-0.1-3.1-0.1-6.1-0.2-9.2C47.6,5.6,49,5.1,50.5,5.1z"/>
			<path fill-rule="evenodd" clip-rule="evenodd" fill="#EAF3F6" d="M84.9,13.9c0.3-2.9,1-5.8,0.7-8.8c2-0.1,3.5,0.7,3.9,2.8
				c0.4,2.3,0.4,4.8-1.1,6.6C87.2,16,86,14.2,84.9,13.9z"/>
			<path fill-rule="evenodd" clip-rule="evenodd" fill="#52A1B7" d="M54.5,128.5c1,2.9-0.7,6,0.7,8.8c-1.4,1-3.1,1.3-4.7,1.4
				c-0.4-3.1,1.2-6,0.6-9C52.2,129.4,53.4,128.9,54.5,128.5z"/>
			<path fill-rule="evenodd" clip-rule="evenodd" fill="#EAF3F6" d="M18.1,129.9c-1,2.9-0.6,5.8-0.7,8.8c-3.8-1.1-5.8-6.5-3.2-9.3
				C15.4,128.1,16.9,129.1,18.1,129.9z"/>
			<path fill-rule="evenodd" clip-rule="evenodd" fill="#2083A0" d="M38.3,9.9c1.5,2.9,0.1,6.3,1.4,9.3c-1.3,0.8-2.6,1.6-3.9,2.5
				c-0.6-2.1-0.5-4.3,0.1-6.4c0.4-1.5,0.2-2.5-1-3.4C35.8,10.9,37,10.2,38.3,9.9z"/>
			<path fill-rule="evenodd" clip-rule="evenodd" fill="#EAF3F6" d="M13.4,79.3c1.2,3.7,1,4-2.8,4.1c-5.4,0-5.6-0.1-5.9-4
				C7.6,79.3,10.5,79.3,13.4,79.3z"/>
			<path fill-rule="evenodd" clip-rule="evenodd" fill="#2083A0" d="M64.8,133.4c-1.9-3.1-0.3-6.5-0.9-9.7c1.1-0.7,2.2-1.4,3.3-2.1
				c0,3.5,0.1,6.9,0.1,10.4C66.7,132.8,65.8,133.1,64.8,133.4z"/>
			<path fill-rule="evenodd" clip-rule="evenodd" fill="#EAF3F6" d="M97.7,63.8c-2.7,0-5.4,0-8.1,0c-0.9-0.8-1.6-1.8-1.1-2.9
				c0.6-1.5,2.1-1.1,3.2-1.1C96.9,59.7,97.3,60,97.7,63.8z"/>
			<path fill-rule="evenodd" clip-rule="evenodd" fill="#DAEBEF" d="M13.4,79.3c-2.9,0-5.8,0-8.8,0c-0.8-1.3-0.7-2.7-0.7-4.1
				c2.9-0.3,5.8,0.4,8.7,0.7C12.9,77.1,13.2,78.2,13.4,79.3z"/>
			<path fill-rule="evenodd" clip-rule="evenodd" fill="#3C96AE" d="M46.4,6.4c0.1,3.1,0.1,6.1,0.2,9.2c-1.2,0.5-2.3,1.1-3.5,1.6
				c-1-3.2,0.2-6.4,0-9.5C44,6.9,45.1,6.4,46.4,6.4z"/>
			<path fill-rule="evenodd" clip-rule="evenodd" fill="#69AEC0" d="M51.1,129.8c0.6,3.1-0.9,6-0.6,9c-1,0.9-2.3,0.4-3.3,0.8
				c0-3,0-6,0-9C48.5,130.4,49.8,130.1,51.1,129.8z"/>
			<path fill-rule="evenodd" clip-rule="evenodd" fill="#2083A0" d="M22.9,34.2c-2-0.7-4.1-0.7-6.2-0.7c-1.2,0-2.5,0.4-3.4-0.8
				c0-1.2,1-1.7,1.6-2.6c3.6,0.2,7.1,0.5,10.7,0.7C24.7,32,23.8,33.1,22.9,34.2z"/>
			<path fill-rule="evenodd" clip-rule="evenodd" fill="#3C96AE" d="M18.7,40.9c-3.2-0.2-6.4-0.5-9.5-0.7c0.5-1.5,1.1-2.9,2.1-4.1
				c0.5,1,1.3,1.8,2.4,1.4c2.3-0.8,4.4,0.4,6.5,0.8C19.7,39.1,19.2,40,18.7,40.9z"/>
			<path fill-rule="evenodd" clip-rule="evenodd" fill="#2E8DA8" d="M43.7,32c0.2-0.2,0.4-0.4,0.7-0.5C44.2,31.7,44,31.8,43.7,32z"
				/>
			<path fill-rule="evenodd" clip-rule="evenodd" fill="#2083A0" d="M16.1,28.7c-0.2,0.3-0.4,0.5-0.6,0.8
				C15.6,29.2,15.8,28.9,16.1,28.7z"/>
			<path fill-rule="evenodd" clip-rule="evenodd" fill="#83BCCB" d="M85.6,84.2c0.1-0.3,0.2-0.5,0.3-0.8
				C85.8,83.7,85.7,83.9,85.6,84.2z"/>
			<path fill-rule="evenodd" clip-rule="evenodd" fill="#3C96AE" d="M80.8,99.5c0.1-0.2,0.3-0.4,0.4-0.5
				C81,99.1,80.9,99.3,80.8,99.5z"/>
			<path fill-rule="evenodd" clip-rule="evenodd" fill="#2E8DA8" d="M78.8,103c0.2-0.2,0.3-0.5,0.5-0.7
				C79.1,102.5,79,102.8,78.8,103z"/>
		</g>
	</g>
</g>
</svg>
